<svg width="500" height="500" xmlns="http://www.w3.org/2000/svg">
 <g>
  <title>online</title>
  <rect x="-1" y="-1" width="500" height="500" id="canvas_background" fill="none"/>
 </g>

 <g>
  <title>Layer 1</title>
  <g id="computer-devices-responsive" stroke="null">
   <g id="svg_1" stroke="null">
    <circle cx="250.999987" cy="250" r="250" fill="#F4F1F0" id="svg_2" stroke="null"/>
    <g id="_x32_3" stroke="null">
     <path d="m271.13219,341.998l3.37144,7.183c0,0 0,2.105 -1.41062,2.105c-1.4046,0 -79.40134,0 -80.81196,0c-1.4046,0 -1.75399,-2.105 -1.75399,-2.105l3.36641,-7.183l77.23872,0zm-0.16264,-15.251l-77.27788,0l0,13.493l77.27788,0l0,-13.493zm-153.65115,-34.549l0,-126.063l224.146,0l0,14.366l14.70157,0l0,-24.777c0,-3.857 -3.16461,-7.01 -7.03804,-7.01l-238.90179,0c-3.87243,0 -7.03703,3.152 -7.03703,7.01l0,140.175l0,3.299l0,16.385c0,4.318 3.1646,7.872 7.03703,7.872l188.85942,0l0,-31.256l-181.76716,0l0,-0.001z" fill="#675F58" id="svg_3" stroke="null"/>
     <path d="m381.86034,188.911l-57.38462,0c-9.33118,0 -16.95756,7.601 -16.95756,16.878l0,128.602c0,9.288 7.62638,16.895 16.95756,16.895l57.38462,0c9.32515,0 16.95153,-7.606 16.95153,-16.895l0,-128.602c0,-9.277 -7.62638,-16.878 -16.95153,-16.878zm-39.12689,4.931c0,-0.564 0.93774,-1.037 2.08029,-1.037l16.70656,0c1.14456,0 2.08029,0.472 2.08029,1.037l0,0.526c0,0.564 -0.93673,1.037 -2.08029,1.037l-16.70656,0c-1.14355,0 -2.08029,-0.472 -2.08029,-1.037l0,-0.526zm12.39238,6.115c0,1.074 -0.88252,1.948 -1.96082,1.948c-1.07829,0 -1.96081,-0.874 -1.96081,-1.948c0,-1.085 0.88252,-1.959 1.96081,-1.959c1.0783,0 1.96082,0.874 1.96082,1.959zm8.47476,142.746c0,1.145 -0.93673,2.083 -2.08029,2.083l-16.70656,0c-1.14355,0 -2.08029,-0.938 -2.08029,-2.083l0,-1.036c0,-1.14 0.93774,-2.067 2.08029,-2.067l16.70656,0c1.14456,0 2.08029,0.928 2.08029,2.067l0,1.036zm28.17826,-8.311l-76.01886,0l0,-128.603l76.01886,0l0,128.603z" fill="#FF931E" id="svg_4" stroke="null"/>
    </g>
   </g>
  </g>
  <g id="Layer_1"/>
  <text fill="#007fff" stroke-width="0" stroke-opacity="null" x="259.213864" y="248.860199" id="svg_6" font-size="24" font-family="Helvetica, Arial, sans-serif" text-anchor="start" xml:space="preserve" transform="matrix(1.512647517247365,0,0,1.2641667721058116,-56.85319978164537,-57.39290739040224) " stroke="null">@</text>
  <text fill="#444444" stroke-width="0" stroke-opacity="null" x="187.500366" y="231.428571" id="svg_10" font-size="24" font-family="Helvetica, Arial, sans-serif" text-anchor="start" xml:space="preserve" transform="matrix(1.2308385372161865,0,0,1.399999976158142,-44.782676219940186,-85.19999492168427) " stroke="null">www</text>
 </g>
</svg>