<?xml version="1.0" encoding="utf-8"?>
<!-- Svg Vector Icons : http://www.onlinewebfonts.com/icon -->
<!DOCTYPE svg PUBLIC "-//W3C//DTD SVG 1.1//EN" "http://www.w3.org/Graphics/SVG/1.1/DTD/svg11.dtd">
<svg version="1.1" xmlns="http://www.w3.org/2000/svg" xmlns:xlink="http://www.w3.org/1999/xlink" x="0px" y="0px" viewBox="0 0 1000 1000" enable-background="new 0 0 1000 1000" xml:space="preserve">
<metadata> Svg Vector Icons : http://www.onlinewebfonts.com/icon </metadata>
<g><path d="M928.8,806.3v-735c0-33.9-27.4-61.3-61.3-61.3h-735c-33.9,0-61.3,27.4-61.3,61.3v826.9c0,50.7,41.1,91.9,91.9,91.9h750.3c8.5,0,15.3-6.8,15.3-15.3s-6.8-15.3-15.3-15.3h-15.3V836.9C915,836.9,928.8,823.2,928.8,806.3z M101.9,71.3c0-16.9,13.7-30.6,30.6-30.6h61.3v765.6h-30.6c-23.6,0-45,8.9-61.3,23.5V71.3z M867.5,959.4H163.1c-33.8,0-61.3-27.4-61.3-61.3s27.4-61.3,61.3-61.3h704.4V959.4z M224.4,806.3V40.6h643.1c16.9,0,30.6,13.7,30.6,30.6v735H224.4z"/><path d="M653.1,408.1H362.2c-8.5,0-15.3,6.8-15.3,15.3s6.8,15.3,15.3,15.3h290.9c8.5,0,15.3-6.8,15.3-15.3S661.6,408.1,653.1,408.1z"/><path d="M760.3,316.3H362.2c-8.5,0-15.3,6.8-15.3,15.3s6.8,15.3,15.3,15.3h398.1c8.5,0,15.3-6.8,15.3-15.3S768.8,316.3,760.3,316.3z"/><path d="M362.2,255h183.8c8.5,0,15.3-6.8,15.3-15.3s-6.8-15.3-15.3-15.3H362.2c-8.5,0-15.3,6.8-15.3,15.3S353.7,255,362.2,255z"/></g>
</svg>