<?xml version="1.0" encoding="iso-8859-1"?>
<!-- Generator: Adobe Illustrator 19.0.0, SVG Export Plug-In . SVG Version: 6.00 Build 0)  -->
<svg version="1.1" id="Layer_1" xmlns="http://www.w3.org/2000/svg" xmlns:xlink="http://www.w3.org/1999/xlink" x="0px" y="0px"
	 viewBox="0 0 512 512" style="enable-background:new 0 0 512 512;" xml:space="preserve">
<polygon points="16,0 0,0 0,512 512,512 512,496 16,496 "/>
<g>
	<rect x="76" y="168.8" style="fill:#9DE8F7;" width="88" height="270.4"/>
	<rect x="76" y="51.2" style="fill:#9DE8F7;" width="88" height="102.4"/>
</g>
<g>
	<rect x="224" y="51.2" style="fill:#FAD97F;" width="88" height="102.4"/>
	<rect x="224" y="168.8" style="fill:#FAD97F;" width="88" height="270.4"/>
</g>
<path d="M60,455.2h120v-420H60V455.2z M164,439.2H76V168.8h88V439.2z M76,51.2h88v102.4H76V51.2z"/>
<path d="M208,455.2h120v-420H208V455.2z M312,439.2h-88V168.8h88V439.2z M224,51.2h88v102.4h-88V51.2z"/>
<g>
	<polygon style="fill:#F2385A;" points="468.8,145.6 460,44 372.8,52 380.8,153.6 	"/>
	<polygon style="fill:#F2385A;" points="471.08,161.608 383.432,169.576 383.2,169.6 407.2,438.4 407.376,438.384 495.016,430.416 
		495.2,430.4 471.2,161.6 	"/>
</g>
<path d="M474.4,26.4L355.2,37.6L392.8,456L512,444.8L474.4,26.4z M495.016,430.416l-87.64,7.968L407.2,438.4l-24-268.8l0.232-0.024
	l87.64-7.968l0.128-0.008l24,268.8L495.016,430.416z M460,44l8.8,101.6l-88,8l-8-101.6L460,44z"/>
<g>
</g>
<g>
</g>
<g>
</g>
<g>
</g>
<g>
</g>
<g>
</g>
<g>
</g>
<g>
</g>
<g>
</g>
<g>
</g>
<g>
</g>
<g>
</g>
<g>
</g>
<g>
</g>
<g>
</g>
</svg>
