<?xml version="1.0" encoding="iso-8859-1"?>
<!-- Generator: Adobe Illustrator 19.0.0, SVG Export Plug-In . SVG Version: 6.00 Build 0)  -->
<svg version="1.1" id="Layer_1" xmlns="http://www.w3.org/2000/svg" xmlns:xlink="http://www.w3.org/1999/xlink" x="0px" y="0px"
	 viewBox="0 0 512 512" style="enable-background:new 0 0 512 512;" xml:space="preserve">
<g>
	<g>
		<path d="M315.988,0H196.012c-11.359,0-20.567,9.209-20.567,20.567v353.351c0,3.067,0.739,6.392,2.249,9.35l59.988,117.533
			c7.621,14.931,29.018,14.932,36.639,0l59.986-117.533c1.503-2.944,2.249-6.274,2.249-9.35V20.567
			C336.555,9.209,327.346,0,315.988,0z M216.581,41.135h18.848v312.216h-18.848V41.135z M256.002,446.209l-26.399-51.723h52.798
			L256.002,446.209z M295.42,353.351h-18.858V41.135h18.858V353.351z"/>
	</g>
</g>
</svg>
