<svg width="256" height="256" xmlns="http://www.w3.org/2000/svg">
 <g>
  <title>background</title>
  <rect x="-1" y="-1" width="256" height="256" id="canvas_background" fill="none"/>
 </g>

 <g>
  <title>Layer 1</title>
  <g id="svg_2">
   <rect x="53" y="168.8" width="88" height="270.4" fill="#00bf00" id="svg_3"/>
   <rect x="53" y="51.2" width="88" height="102.4" fill="#00bf00" id="svg_4"/>
  </g>
  <g id="svg_5">
   <rect x="201" y="51.2" width="88" height="102.4" fill="#ff7f00" id="svg_6"/>
   <rect x="201" y="168.8" width="88" height="270.4" fill="#ff7f00" id="svg_7"/>
  </g>
  <path fill="#b2b2b2" d="m37,455.2l120,0l0,-420l-120,0l0,420zm104,-16l-88,0l0,-270.4l88,0l0,270.4zm-88,-388l88,0l0,102.4l-88,0l0,-102.4z" id="svg_8"/>
  <path fill="#999999" d="m185,455.2l120,0l0,-420l-120,0l0,420zm104,-16l-88,0l0,-270.4l88,0l0,270.4zm-88,-388l88,0l0,102.4l-88,0l0,-102.4z" id="svg_9"/>
  <g id="svg_10">
   <polygon points="440.79998779296875,145.60000610351562 432,44 344.79998779296875,52 352.79998779296875,153.60000610351562 " fill="#56aaff" id="svg_11"/>
   <polygon points="443.0799865722656,161.60800170898438 355.4320068359375,169.5760040283203 355.20001220703125,169.60000610351562 379.20001220703125,438.3999938964844 379.3760070800781,438.3840026855469 467.0159912109375,430.4159851074219 467.20001220703125,430.3999938964844 443.20001220703125,161.60000610351562 " fill="#56aaff" id="svg_12"/>
  </g>
  <path fill="#666666" d="m446.4,26.4l-119.2,11.2l37.6,418.4l119.2,-11.2l-37.6,-418.4zm20.616,404.016l-87.64,7.968l-0.176,0.016l-24,-268.8l0.232,-0.024l87.64,-7.968l0.128,-0.008l24,268.8l-0.184,0.016zm-35.016,-386.416l8.8,101.6l-88,8l-8,-101.6l87.2,-8z" id="svg_13" stroke="null"/>
 </g>
</svg>